<svg id="Layer_1" data-name="Layer 1" xmlns="http://www.w3.org/2000/svg" viewBox="0 0 512 512"><title>Artboard 1</title><path d="M307.71,270.6Q289.8,245.67,255,245.66q-27.3,0-48.47,19.29T185.35,321.9q0,19.75,13.65,40T242.76,385q-6.58,18.8-17.87,29.64a104,104,0,0,1-25.42,17.88,136.72,136.72,0,0,1-30.59,10.83q-9.27,2.12-18.69,4.23A162.71,162.71,0,0,1,163,509.83q36.16-6.45,63.77-21.82,32.94-18.36,55.06-44.23t32.95-55.53q10.8-29.65,10.83-56.95Q325.6,295.56,307.71,270.6Z"/><path d="M458.36,357.05,255,0,52.3,356.57A163,163,0,0,1,108,389L255,132.07,402.46,390.29A162.77,162.77,0,0,1,458.36,357.05Z"/></svg>